<svg width="79" height="28" viewBox="0 0 79 28" fill="none" xmlns="http://www.w3.org/2000/svg">
<path d="M23.9327 10.2676L23.3447 8.50358H19.4387L18.8507 10.2676H16.7647L20.1947 0.467577H22.5887L26.0327 10.2676H23.9327ZM20.0547 6.69758H22.7427L21.3987 2.69358L20.0547 6.69758ZM32.0149 0.467577H33.8209V10.2676H32.0149V9.44158C31.4829 10.1229 30.7269 10.4636 29.7469 10.4636C28.8042 10.4636 27.9969 10.1089 27.3249 9.39958C26.6622 8.68091 26.3309 7.80358 26.3309 6.76758C26.3309 5.73158 26.6622 4.85891 27.3249 4.14958C27.9969 3.43091 28.8042 3.07158 29.7469 3.07158C30.7269 3.07158 31.4829 3.41224 32.0149 4.09358V0.467577ZM28.6829 8.19558C29.0562 8.55958 29.5229 8.74158 30.0829 8.74158C30.6429 8.74158 31.1049 8.55958 31.4689 8.19558C31.8329 7.82224 32.0149 7.34624 32.0149 6.76758C32.0149 6.18891 31.8329 5.71758 31.4689 5.35358C31.1049 4.98024 30.6429 4.79358 30.0829 4.79358C29.5229 4.79358 29.0562 4.98024 28.6829 5.35358C28.3189 5.71758 28.1369 6.18891 28.1369 6.76758C28.1369 7.34624 28.3189 7.82224 28.6829 8.19558ZM41.4366 9.39958C40.7179 10.1089 39.8406 10.4636 38.8046 10.4636C37.7686 10.4636 36.8912 10.1089 36.1726 9.39958C35.4632 8.68091 35.1086 7.80358 35.1086 6.76758C35.1086 5.73158 35.4632 4.85891 36.1726 4.14958C36.8912 3.43091 37.7686 3.07158 38.8046 3.07158C39.8406 3.07158 40.7179 3.43091 41.4366 4.14958C42.1552 4.85891 42.5146 5.73158 42.5146 6.76758C42.5146 7.80358 42.1552 8.68091 41.4366 9.39958ZM37.4466 8.15358C37.8106 8.51758 38.2632 8.69958 38.8046 8.69958C39.3459 8.69958 39.7986 8.51758 40.1626 8.15358C40.5266 7.78958 40.7086 7.32758 40.7086 6.76758C40.7086 6.20758 40.5266 5.74558 40.1626 5.38158C39.7986 5.01758 39.3459 4.83558 38.8046 4.83558C38.2632 4.83558 37.8106 5.01758 37.4466 5.38158C37.0919 5.74558 36.9146 6.20758 36.9146 6.76758C36.9146 7.32758 37.0919 7.78958 37.4466 8.15358ZM47.8591 3.07158C48.8017 3.07158 49.6044 3.43091 50.2671 4.14958C50.9391 4.85891 51.2751 5.73158 51.2751 6.76758C51.2751 7.80358 50.9391 8.68091 50.2671 9.39958C49.6044 10.1089 48.8017 10.4636 47.8591 10.4636C46.8791 10.4636 46.1231 10.1229 45.5911 9.44158V10.2676H43.7851V0.467577H45.5911V4.09358C46.1231 3.41224 46.8791 3.07158 47.8591 3.07158ZM46.1371 8.19558C46.5011 8.55958 46.9631 8.74158 47.5231 8.74158C48.0831 8.74158 48.5451 8.55958 48.9091 8.19558C49.2824 7.82224 49.4691 7.34624 49.4691 6.76758C49.4691 6.18891 49.2824 5.71758 48.9091 5.35358C48.5451 4.98024 48.0831 4.79358 47.5231 4.79358C46.9631 4.79358 46.5011 4.98024 46.1371 5.35358C45.7731 5.71758 45.5911 6.18891 45.5911 6.76758C45.5911 7.34624 45.7731 7.82224 46.1371 8.19558ZM54.0747 7.50958C54.3174 8.38691 54.9754 8.82558 56.0487 8.82558C56.7394 8.82558 57.2621 8.59224 57.6167 8.12558L59.0727 8.96558C58.3821 9.96424 57.3647 10.4636 56.0207 10.4636C54.8634 10.4636 53.9347 10.1136 53.2347 9.41358C52.5347 8.71358 52.1847 7.83158 52.1847 6.76758C52.1847 5.71291 52.5301 4.83558 53.2207 4.13558C53.9114 3.42624 54.7981 3.07158 55.8807 3.07158C56.9074 3.07158 57.7521 3.42624 58.4147 4.13558C59.0867 4.84491 59.4227 5.72224 59.4227 6.76758C59.4227 7.00091 59.3994 7.24824 59.3527 7.50958H54.0747ZM54.0467 6.10958H57.6167C57.5141 5.63358 57.2994 5.27891 56.9727 5.04558C56.6554 4.81224 56.2914 4.69558 55.8807 4.69558C55.3954 4.69558 54.9941 4.82158 54.6767 5.07358C54.3594 5.31624 54.1494 5.66158 54.0467 6.10958ZM8.02552 27.2676L7.43752 25.5036H3.53152L2.94352 27.2676H0.857517L4.28752 17.4676H6.68152L10.1255 27.2676H8.02552ZM4.14752 23.6976H6.83552L5.49152 19.6936L4.14752 23.6976ZM14.554 19.0076C13.5647 18.9329 13.07 19.3296 13.07 20.1976V20.2676H14.554V22.0036H13.07V27.2676H11.264V22.0036H10.256V20.2676H11.264V20.1976C11.264 19.2082 11.5393 18.4569 12.09 17.9436C12.6407 17.4302 13.462 17.2062 14.554 17.2716V19.0076ZM19.6045 22.0036H18.0225V24.9156C18.0225 25.1582 18.0832 25.3356 18.2045 25.4476C18.3258 25.5596 18.5032 25.6249 18.7365 25.6436C18.9698 25.6529 19.2592 25.6482 19.6045 25.6296V27.2676C18.3632 27.4076 17.4858 27.2909 16.9725 26.9176C16.4685 26.5442 16.2165 25.8769 16.2165 24.9156V22.0036H14.9985V20.2676H16.2165V18.8536L18.0225 18.3076V20.2676H19.6045V22.0036ZM22.1851 24.5096C22.4278 25.3869 23.0858 25.8256 24.1591 25.8256C24.8498 25.8256 25.3724 25.5922 25.7271 25.1256L27.1831 25.9656C26.4924 26.9642 25.4751 27.4636 24.1311 27.4636C22.9738 27.4636 22.0451 27.1136 21.3451 26.4136C20.6451 25.7136 20.2951 24.8316 20.2951 23.7676C20.2951 22.7129 20.6404 21.8356 21.3311 21.1356C22.0218 20.4262 22.9084 20.0716 23.9911 20.0716C25.0178 20.0716 25.8624 20.4262 26.5251 21.1356C27.1971 21.8449 27.5331 22.7222 27.5331 23.7676C27.5331 24.0009 27.5098 24.2482 27.4631 24.5096H22.1851ZM22.1571 23.1096H25.7271C25.6244 22.6336 25.4098 22.2789 25.0831 22.0456C24.7658 21.8122 24.4018 21.6956 23.9911 21.6956C23.5058 21.6956 23.1044 21.8216 22.7871 22.0736C22.4698 22.3162 22.2598 22.6616 22.1571 23.1096ZM30.5999 21.4716C30.7679 21.0236 31.0432 20.6876 31.4259 20.4636C31.8179 20.2396 32.2519 20.1276 32.7279 20.1276V22.1436C32.1772 22.0782 31.6825 22.1902 31.2439 22.4796C30.8145 22.7689 30.5999 23.2496 30.5999 23.9216V27.2676H28.7939V20.2676H30.5999V21.4716ZM39.3001 25.4196H43.4301V27.2676H37.3681V17.4676H43.3601V19.3156H39.3001V21.4016H43.0101V23.2216H39.3001V25.4196ZM52.3519 18.8676C51.3626 18.7929 50.8679 19.1896 50.8679 20.0576V20.2676H52.3519V22.0036H50.8679V27.2676H49.0619V22.0036H46.9899V27.2676H45.1839V22.0036H44.1759V20.2676H45.1839V20.1976C45.1839 19.2082 45.4593 18.4569 46.0099 17.9436C46.5606 17.4302 47.3819 17.2062 48.4739 17.2716V19.0076C47.4846 18.9329 46.9899 19.3296 46.9899 20.1976V20.2676H49.0619V20.0576C49.0619 19.0682 49.3373 18.3169 49.8879 17.8036C50.4479 17.2902 51.2693 17.0662 52.3519 17.1316V18.8676ZM54.4507 24.5096C54.6934 25.3869 55.3514 25.8256 56.4247 25.8256C57.1154 25.8256 57.6381 25.5922 57.9927 25.1256L59.4487 25.9656C58.7581 26.9642 57.7407 27.4636 56.3967 27.4636C55.2394 27.4636 54.3107 27.1136 53.6107 26.4136C52.9107 25.7136 52.5607 24.8316 52.5607 23.7676C52.5607 22.7129 52.9061 21.8356 53.5967 21.1356C54.2874 20.4262 55.1741 20.0716 56.2567 20.0716C57.2834 20.0716 58.1281 20.4262 58.7907 21.1356C59.4627 21.8449 59.7987 22.7222 59.7987 23.7676C59.7987 24.0009 59.7754 24.2482 59.7287 24.5096H54.4507ZM54.4227 23.1096H57.9927C57.8901 22.6336 57.6754 22.2789 57.3487 22.0456C57.0314 21.8122 56.6674 21.6956 56.2567 21.6956C55.7714 21.6956 55.3701 21.8216 55.0527 22.0736C54.7354 22.3162 54.5254 22.6616 54.4227 23.1096ZM64.3368 27.4636C63.2821 27.4636 62.4001 27.1089 61.6908 26.3996C60.9908 25.6902 60.6408 24.8129 60.6408 23.7676C60.6408 22.7222 60.9908 21.8449 61.6908 21.1356C62.4001 20.4262 63.2821 20.0716 64.3368 20.0716C65.0181 20.0716 65.6388 20.2349 66.1988 20.5616C66.7588 20.8882 67.1835 21.3269 67.4728 21.8776L65.9188 22.7876C65.7788 22.4982 65.5641 22.2696 65.2748 22.1016C64.9948 21.9336 64.6775 21.8496 64.3228 21.8496C63.7815 21.8496 63.3335 22.0316 62.9788 22.3956C62.6241 22.7502 62.4468 23.2076 62.4468 23.7676C62.4468 24.3182 62.6241 24.7756 62.9788 25.1396C63.3335 25.4942 63.7815 25.6716 64.3228 25.6716C64.6868 25.6716 65.0088 25.5922 65.2888 25.4336C65.5781 25.2656 65.7928 25.0369 65.9328 24.7476L67.5008 25.6436C67.1928 26.1942 66.7588 26.6376 66.1988 26.9736C65.6388 27.3002 65.0181 27.4636 64.3368 27.4636ZM72.46 22.0036H70.878V24.9156C70.878 25.1582 70.9386 25.3356 71.06 25.4476C71.1813 25.5596 71.3586 25.6249 71.592 25.6436C71.8253 25.6529 72.1146 25.6482 72.46 25.6296V27.2676C71.2186 27.4076 70.3413 27.2909 69.828 26.9176C69.324 26.5442 69.072 25.8769 69.072 24.9156V22.0036H67.854V20.2676H69.072V18.8536L70.878 18.3076V20.2676H72.46V22.0036ZM75.2489 22.2556C75.2489 22.4422 75.3703 22.5962 75.6129 22.7176C75.8649 22.8296 76.1683 22.9322 76.5229 23.0256C76.8776 23.1096 77.2323 23.2216 77.5869 23.3616C77.9416 23.4922 78.2403 23.7162 78.4829 24.0336C78.7349 24.3509 78.8609 24.7476 78.8609 25.2236C78.8609 25.9422 78.5903 26.4976 78.0489 26.8896C77.5169 27.2722 76.8496 27.4636 76.0469 27.4636C74.6096 27.4636 73.6296 26.9082 73.1069 25.7976L74.6749 24.9156C74.8803 25.5222 75.3376 25.8256 76.0469 25.8256C76.6909 25.8256 77.0129 25.6249 77.0129 25.2236C77.0129 25.0369 76.8869 24.8876 76.6349 24.7756C76.3923 24.6542 76.0936 24.5469 75.7389 24.4536C75.3843 24.3602 75.0296 24.2436 74.6749 24.1036C74.3203 23.9636 74.0169 23.7442 73.7649 23.4456C73.5223 23.1376 73.4009 22.7549 73.4009 22.2976C73.4009 21.6069 73.6529 21.0656 74.1569 20.6736C74.6703 20.2722 75.3049 20.0716 76.0609 20.0716C76.6303 20.0716 77.1483 20.2022 77.6149 20.4636C78.0816 20.7156 78.4503 21.0796 78.7209 21.5556L77.1809 22.3956C76.9569 21.9196 76.5836 21.6816 76.0609 21.6816C75.8276 21.6816 75.6316 21.7329 75.4729 21.8356C75.3236 21.9382 75.2489 22.0782 75.2489 22.2556Z" fill="#828282"/>
</svg>
