<svg width="62" height="28" viewBox="0 0 62 28" fill="none" xmlns="http://www.w3.org/2000/svg">
<path d="M14.8664 10.2676L14.2784 8.50358H10.3724L9.78441 10.2676H7.69841L11.1284 0.467577H13.5224L16.9664 10.2676H14.8664ZM10.9884 6.69758H13.6764L12.3324 2.69358L10.9884 6.69758ZM22.9486 0.467577H24.7546V10.2676H22.9486V9.44158C22.4166 10.1229 21.6606 10.4636 20.6806 10.4636C19.7379 10.4636 18.9306 10.1089 18.2586 9.39958C17.5959 8.68091 17.2646 7.80358 17.2646 6.76758C17.2646 5.73158 17.5959 4.85891 18.2586 4.14958C18.9306 3.43091 19.7379 3.07158 20.6806 3.07158C21.6606 3.07158 22.4166 3.41224 22.9486 4.09358V0.467577ZM19.6166 8.19558C19.9899 8.55958 20.4566 8.74158 21.0166 8.74158C21.5766 8.74158 22.0386 8.55958 22.4026 8.19558C22.7666 7.82224 22.9486 7.34624 22.9486 6.76758C22.9486 6.18891 22.7666 5.71758 22.4026 5.35358C22.0386 4.98024 21.5766 4.79358 21.0166 4.79358C20.4566 4.79358 19.9899 4.98024 19.6166 5.35358C19.2526 5.71758 19.0706 6.18891 19.0706 6.76758C19.0706 7.34624 19.2526 7.82224 19.6166 8.19558ZM32.3702 9.39958C31.6516 10.1089 30.7742 10.4636 29.7382 10.4636C28.7022 10.4636 27.8249 10.1089 27.1062 9.39958C26.3969 8.68091 26.0422 7.80358 26.0422 6.76758C26.0422 5.73158 26.3969 4.85891 27.1062 4.14958C27.8249 3.43091 28.7022 3.07158 29.7382 3.07158C30.7742 3.07158 31.6516 3.43091 32.3702 4.14958C33.0889 4.85891 33.4482 5.73158 33.4482 6.76758C33.4482 7.80358 33.0889 8.68091 32.3702 9.39958ZM28.3802 8.15358C28.7442 8.51758 29.1969 8.69958 29.7382 8.69958C30.2796 8.69958 30.7322 8.51758 31.0962 8.15358C31.4602 7.78958 31.6422 7.32758 31.6422 6.76758C31.6422 6.20758 31.4602 5.74558 31.0962 5.38158C30.7322 5.01758 30.2796 4.83558 29.7382 4.83558C29.1969 4.83558 28.7442 5.01758 28.3802 5.38158C28.0256 5.74558 27.8482 6.20758 27.8482 6.76758C27.8482 7.32758 28.0256 7.78958 28.3802 8.15358ZM38.7927 3.07158C39.7354 3.07158 40.5381 3.43091 41.2007 4.14958C41.8727 4.85891 42.2087 5.73158 42.2087 6.76758C42.2087 7.80358 41.8727 8.68091 41.2007 9.39958C40.5381 10.1089 39.7354 10.4636 38.7927 10.4636C37.8127 10.4636 37.0567 10.1229 36.5247 9.44158V10.2676H34.7187V0.467577H36.5247V4.09358C37.0567 3.41224 37.8127 3.07158 38.7927 3.07158ZM37.0707 8.19558C37.4347 8.55958 37.8967 8.74158 38.4567 8.74158C39.0167 8.74158 39.4787 8.55958 39.8427 8.19558C40.2161 7.82224 40.4027 7.34624 40.4027 6.76758C40.4027 6.18891 40.2161 5.71758 39.8427 5.35358C39.4787 4.98024 39.0167 4.79358 38.4567 4.79358C37.8967 4.79358 37.4347 4.98024 37.0707 5.35358C36.7067 5.71758 36.5247 6.18891 36.5247 6.76758C36.5247 7.34624 36.7067 7.82224 37.0707 8.19558ZM45.0084 7.50958C45.2511 8.38691 45.9091 8.82558 46.9824 8.82558C47.6731 8.82558 48.1957 8.59224 48.5504 8.12558L50.0064 8.96558C49.3157 9.96424 48.2984 10.4636 46.9544 10.4636C45.7971 10.4636 44.8684 10.1136 44.1684 9.41358C43.4684 8.71358 43.1184 7.83158 43.1184 6.76758C43.1184 5.71291 43.4637 4.83558 44.1544 4.13558C44.8451 3.42624 45.7317 3.07158 46.8144 3.07158C47.8411 3.07158 48.6857 3.42624 49.3484 4.13558C50.0204 4.84491 50.3564 5.72224 50.3564 6.76758C50.3564 7.00091 50.3331 7.24824 50.2864 7.50958H45.0084ZM44.9804 6.10958H48.5504C48.4477 5.63358 48.2331 5.27891 47.9064 5.04558C47.5891 4.81224 47.2251 4.69558 46.8144 4.69558C46.3291 4.69558 45.9277 4.82158 45.6104 5.07358C45.2931 5.31624 45.0831 5.66158 44.9804 6.10958ZM0.800783 17.4676H2.73278V27.2676H0.800783V17.4676ZM4.46288 27.2676V17.0476H6.26888V27.2676H4.46288ZM7.92186 27.2676V17.0476H9.72786V27.2676H7.92186ZM16.0008 20.2676H17.8068V27.2676H16.0008V26.4836C15.5622 27.1369 14.8668 27.4636 13.9148 27.4636C13.1495 27.4636 12.5148 27.2069 12.0108 26.6936C11.5162 26.1802 11.2688 25.4709 11.2688 24.5656V20.2676H13.0748V24.3416C13.0748 24.8082 13.2008 25.1676 13.4528 25.4196C13.7048 25.6622 14.0408 25.7836 14.4608 25.7836C14.9275 25.7836 15.3008 25.6389 15.5808 25.3496C15.8608 25.0602 16.0008 24.6262 16.0008 24.0476V20.2676ZM21.0722 22.2556C21.0722 22.4422 21.1936 22.5962 21.4362 22.7176C21.6882 22.8296 21.9916 22.9322 22.3462 23.0256C22.7009 23.1096 23.0556 23.2216 23.4102 23.3616C23.7649 23.4922 24.0636 23.7162 24.3062 24.0336C24.5582 24.3509 24.6842 24.7476 24.6842 25.2236C24.6842 25.9422 24.4136 26.4976 23.8722 26.8896C23.3402 27.2722 22.6729 27.4636 21.8702 27.4636C20.4329 27.4636 19.4529 26.9082 18.9302 25.7976L20.4982 24.9156C20.7036 25.5222 21.1609 25.8256 21.8702 25.8256C22.5142 25.8256 22.8362 25.6249 22.8362 25.2236C22.8362 25.0369 22.7102 24.8876 22.4582 24.7756C22.2156 24.6542 21.9169 24.5469 21.5622 24.4536C21.2076 24.3602 20.8529 24.2436 20.4982 24.1036C20.1436 23.9636 19.8402 23.7442 19.5882 23.4456C19.3456 23.1376 19.2242 22.7549 19.2242 22.2976C19.2242 21.6069 19.4762 21.0656 19.9802 20.6736C20.4936 20.2722 21.1282 20.0716 21.8842 20.0716C22.4536 20.0716 22.9716 20.2022 23.4382 20.4636C23.9049 20.7156 24.2736 21.0796 24.5442 21.5556L23.0042 22.3956C22.7802 21.9196 22.4069 21.6816 21.8842 21.6816C21.6509 21.6816 21.4549 21.7329 21.2962 21.8356C21.1469 21.9382 21.0722 22.0782 21.0722 22.2556ZM29.6446 22.0036H28.0626V24.9156C28.0626 25.1582 28.1233 25.3356 28.2446 25.4476C28.3659 25.5596 28.5433 25.6249 28.7766 25.6436C29.0099 25.6529 29.2993 25.6482 29.6446 25.6296V27.2676C28.4033 27.4076 27.5259 27.2909 27.0126 26.9176C26.5086 26.5442 26.2566 25.8769 26.2566 24.9156V22.0036H25.0386V20.2676H26.2566V18.8536L28.0626 18.3076V20.2676H29.6446V22.0036ZM32.8333 21.4716C33.0013 21.0236 33.2767 20.6876 33.6593 20.4636C34.0513 20.2396 34.4853 20.1276 34.9613 20.1276V22.1436C34.4107 22.0782 33.916 22.1902 33.4773 22.4796C33.048 22.7689 32.8333 23.2496 32.8333 23.9216V27.2676H31.0273V20.2676H32.8333V21.4716ZM41.0778 20.2676H42.8838V27.2676H41.0778V26.4416C40.5365 27.1229 39.7758 27.4636 38.7958 27.4636C37.8625 27.4636 37.0598 27.1089 36.3878 26.3996C35.7251 25.6809 35.3938 24.8036 35.3938 23.7676C35.3938 22.7316 35.7251 21.8589 36.3878 21.1496C37.0598 20.4309 37.8625 20.0716 38.7958 20.0716C39.7758 20.0716 40.5365 20.4122 41.0778 21.0936V20.2676ZM37.7458 25.1956C38.1098 25.5596 38.5718 25.7416 39.1318 25.7416C39.6918 25.7416 40.1538 25.5596 40.5178 25.1956C40.8911 24.8222 41.0778 24.3462 41.0778 23.7676C41.0778 23.1889 40.8911 22.7176 40.5178 22.3536C40.1538 21.9802 39.6918 21.7936 39.1318 21.7936C38.5718 21.7936 38.1098 21.9802 37.7458 22.3536C37.3818 22.7176 37.1998 23.1889 37.1998 23.7676C37.1998 24.3462 37.3818 24.8222 37.7458 25.1956ZM48.5255 22.0036H46.9435V24.9156C46.9435 25.1582 47.0041 25.3356 47.1255 25.4476C47.2468 25.5596 47.4241 25.6249 47.6575 25.6436C47.8908 25.6529 48.1801 25.6482 48.5255 25.6296V27.2676C47.2841 27.4076 46.4068 27.2909 45.8935 26.9176C45.3895 26.5442 45.1375 25.8769 45.1375 24.9156V22.0036H43.9195V20.2676H45.1375V18.8536L46.9435 18.3076V20.2676H48.5255V22.0036ZM55.5441 26.3996C54.8254 27.1089 53.9481 27.4636 52.9121 27.4636C51.8761 27.4636 50.9987 27.1089 50.2801 26.3996C49.5707 25.6809 49.2161 24.8036 49.2161 23.7676C49.2161 22.7316 49.5707 21.8589 50.2801 21.1496C50.9987 20.4309 51.8761 20.0716 52.9121 20.0716C53.9481 20.0716 54.8254 20.4309 55.5441 21.1496C56.2627 21.8589 56.6221 22.7316 56.6221 23.7676C56.6221 24.8036 56.2627 25.6809 55.5441 26.3996ZM51.5541 25.1536C51.9181 25.5176 52.3707 25.6996 52.9121 25.6996C53.4534 25.6996 53.9061 25.5176 54.2701 25.1536C54.6341 24.7896 54.8161 24.3276 54.8161 23.7676C54.8161 23.2076 54.6341 22.7456 54.2701 22.3816C53.9061 22.0176 53.4534 21.8356 52.9121 21.8356C52.3707 21.8356 51.9181 22.0176 51.5541 22.3816C51.1994 22.7456 51.0221 23.2076 51.0221 23.7676C51.0221 24.3276 51.1994 24.7896 51.5541 25.1536ZM59.6986 21.4716C59.8666 21.0236 60.1419 20.6876 60.5246 20.4636C60.9166 20.2396 61.3506 20.1276 61.8266 20.1276V22.1436C61.2759 22.0782 60.7812 22.1902 60.3426 22.4796C59.9132 22.7689 59.6986 23.2496 59.6986 23.9216V27.2676H57.8926V20.2676H59.6986V21.4716Z" fill="#828282"/>
</svg>
