<svg width="69" height="31" viewBox="0 0 69 31" fill="none" xmlns="http://www.w3.org/2000/svg">
<path d="M20.0468 10.2656L19.4588 8.50162H15.5528L14.9648 10.2656H12.8788L16.3088 0.465624H18.7028L22.1468 10.2656H20.0468ZM16.1688 6.69562H18.8568L17.5128 2.69162L16.1688 6.69562ZM28.1289 0.465624H29.9349V10.2656H28.1289V9.43962C27.5969 10.121 26.8409 10.4616 25.8609 10.4616C24.9183 10.4616 24.1109 10.107 23.4389 9.39762C22.7763 8.67896 22.4449 7.80162 22.4449 6.76562C22.4449 5.72962 22.7763 4.85696 23.4389 4.14762C24.1109 3.42896 24.9183 3.06963 25.8609 3.06963C26.8409 3.06963 27.5969 3.41029 28.1289 4.09162V0.465624ZM24.7969 8.19362C25.1703 8.55762 25.6369 8.73962 26.1969 8.73962C26.7569 8.73962 27.2189 8.55762 27.5829 8.19362C27.9469 7.82029 28.1289 7.34429 28.1289 6.76562C28.1289 6.18696 27.9469 5.71562 27.5829 5.35162C27.2189 4.97829 26.7569 4.79162 26.1969 4.79162C25.6369 4.79162 25.1703 4.97829 24.7969 5.35162C24.4329 5.71562 24.2509 6.18696 24.2509 6.76562C24.2509 7.34429 24.4329 7.82029 24.7969 8.19362ZM37.5506 9.39762C36.832 10.107 35.9546 10.4616 34.9186 10.4616C33.8826 10.4616 33.0053 10.107 32.2866 9.39762C31.5773 8.67896 31.2226 7.80162 31.2226 6.76562C31.2226 5.72962 31.5773 4.85696 32.2866 4.14762C33.0053 3.42896 33.8826 3.06963 34.9186 3.06963C35.9546 3.06963 36.832 3.42896 37.5506 4.14762C38.2693 4.85696 38.6286 5.72962 38.6286 6.76562C38.6286 7.80162 38.2693 8.67896 37.5506 9.39762ZM33.5606 8.15162C33.9246 8.51562 34.3773 8.69762 34.9186 8.69762C35.46 8.69762 35.9126 8.51562 36.2766 8.15162C36.6406 7.78762 36.8226 7.32562 36.8226 6.76562C36.8226 6.20562 36.6406 5.74362 36.2766 5.37962C35.9126 5.01562 35.46 4.83362 34.9186 4.83362C34.3773 4.83362 33.9246 5.01562 33.5606 5.37962C33.206 5.74362 33.0286 6.20562 33.0286 6.76562C33.0286 7.32562 33.206 7.78762 33.5606 8.15162ZM43.9731 3.06963C44.9158 3.06963 45.7185 3.42896 46.3811 4.14762C47.0531 4.85696 47.3891 5.72962 47.3891 6.76562C47.3891 7.80162 47.0531 8.67896 46.3811 9.39762C45.7185 10.107 44.9158 10.4616 43.9731 10.4616C42.9931 10.4616 42.2371 10.121 41.7051 9.43962V10.2656H39.8991V0.465624H41.7051V4.09162C42.2371 3.41029 42.9931 3.06963 43.9731 3.06963ZM42.2511 8.19362C42.6151 8.55762 43.0771 8.73962 43.6371 8.73962C44.1971 8.73962 44.6591 8.55762 45.0231 8.19362C45.3965 7.82029 45.5831 7.34429 45.5831 6.76562C45.5831 6.18696 45.3965 5.71562 45.0231 5.35162C44.6591 4.97829 44.1971 4.79162 43.6371 4.79162C43.0771 4.79162 42.6151 4.97829 42.2511 5.35162C41.8871 5.71562 41.7051 6.18696 41.7051 6.76562C41.7051 7.34429 41.8871 7.82029 42.2511 8.19362ZM50.1888 7.50762C50.4315 8.38496 51.0895 8.82362 52.1628 8.82362C52.8535 8.82362 53.3761 8.59029 53.7308 8.12362L55.1868 8.96362C54.4961 9.96229 53.4788 10.4616 52.1348 10.4616C50.9775 10.4616 50.0488 10.1116 49.3488 9.41162C48.6488 8.71162 48.2988 7.82962 48.2988 6.76562C48.2988 5.71096 48.6441 4.83362 49.3348 4.13362C50.0255 3.42429 50.9121 3.06963 51.9948 3.06963C53.0215 3.06963 53.8661 3.42429 54.5288 4.13362C55.2008 4.84296 55.5368 5.72029 55.5368 6.76562C55.5368 6.99896 55.5135 7.24629 55.4668 7.50762H50.1888ZM50.1608 6.10762H53.7308C53.6281 5.63162 53.4135 5.27696 53.0868 5.04362C52.7695 4.81029 52.4055 4.69362 51.9948 4.69362C51.5095 4.69362 51.1081 4.81962 50.7908 5.07162C50.4735 5.31429 50.2635 5.65962 50.1608 6.10762ZM4.30997 17.4656C5.25264 17.4656 6.04597 17.783 6.68997 18.4176C7.33397 19.0523 7.65597 19.8316 7.65597 20.7556C7.65597 21.6796 7.33397 22.459 6.68997 23.0936C6.04597 23.7283 5.25264 24.0456 4.30997 24.0456H2.58797V27.2656H0.655972V17.4656H4.30997ZM4.30997 22.2396C4.72064 22.2396 5.06131 22.0996 5.33197 21.8196C5.60264 21.5303 5.73797 21.1756 5.73797 20.7556C5.73797 20.3263 5.60264 19.9716 5.33197 19.6916C5.06131 19.4116 4.72064 19.2716 4.30997 19.2716H2.58797V22.2396H4.30997ZM12.7218 20.0696C13.4871 20.0696 14.1171 20.3263 14.6118 20.8396C15.1158 21.353 15.3678 22.0623 15.3678 22.9676V27.2656H13.5618V23.1916C13.5618 22.725 13.4358 22.3703 13.1838 22.1276C12.9318 21.8756 12.5958 21.7496 12.1758 21.7496C11.7091 21.7496 11.3358 21.8943 11.0558 22.1836C10.7758 22.473 10.6358 22.907 10.6358 23.4856V27.2656H8.82978V17.4656H10.6358V21.0496C11.0745 20.3963 11.7698 20.0696 12.7218 20.0696ZM22.8739 26.3976C22.1552 27.107 21.2779 27.4616 20.2419 27.4616C19.2059 27.4616 18.3285 27.107 17.6099 26.3976C16.9005 25.679 16.5459 24.8016 16.5459 23.7656C16.5459 22.7296 16.9005 21.857 17.6099 21.1476C18.3285 20.429 19.2059 20.0696 20.2419 20.0696C21.2779 20.0696 22.1552 20.429 22.8739 21.1476C23.5925 21.857 23.9519 22.7296 23.9519 23.7656C23.9519 24.8016 23.5925 25.679 22.8739 26.3976ZM18.8839 25.1516C19.2479 25.5156 19.7005 25.6976 20.2419 25.6976C20.7832 25.6976 21.2359 25.5156 21.5999 25.1516C21.9639 24.7876 22.1459 24.3256 22.1459 23.7656C22.1459 23.2056 21.9639 22.7436 21.5999 22.3796C21.2359 22.0156 20.7832 21.8336 20.2419 21.8336C19.7005 21.8336 19.2479 22.0156 18.8839 22.3796C18.5292 22.7436 18.3519 23.2056 18.3519 23.7656C18.3519 24.3256 18.5292 24.7876 18.8839 25.1516ZM29.076 22.0016H27.494V24.9136C27.494 25.1563 27.5546 25.3336 27.676 25.4456C27.7973 25.5576 27.9746 25.623 28.208 25.6416C28.4413 25.651 28.7306 25.6463 29.076 25.6276V27.2656C27.8346 27.4056 26.9573 27.289 26.444 26.9156C25.94 26.5423 25.688 25.875 25.688 24.9136V22.0016H24.47V20.2656H25.688V18.8516L27.494 18.3056V20.2656H29.076V22.0016ZM36.0946 26.3976C35.3759 27.107 34.4986 27.4616 33.4626 27.4616C32.4266 27.4616 31.5492 27.107 30.8306 26.3976C30.1212 25.679 29.7666 24.8016 29.7666 23.7656C29.7666 22.7296 30.1212 21.857 30.8306 21.1476C31.5492 20.429 32.4266 20.0696 33.4626 20.0696C34.4986 20.0696 35.3759 20.429 36.0946 21.1476C36.8132 21.857 37.1726 22.7296 37.1726 23.7656C37.1726 24.8016 36.8132 25.679 36.0946 26.3976ZM32.1046 25.1516C32.4686 25.5156 32.9212 25.6976 33.4626 25.6976C34.0039 25.6976 34.4566 25.5156 34.8206 25.1516C35.1846 24.7876 35.3666 24.3256 35.3666 23.7656C35.3666 23.2056 35.1846 22.7436 34.8206 22.3796C34.4566 22.0156 34.0039 21.8336 33.4626 21.8336C32.9212 21.8336 32.4686 22.0156 32.1046 22.3796C31.7499 22.7436 31.5726 23.2056 31.5726 23.7656C31.5726 24.3256 31.7499 24.7876 32.1046 25.1516ZM39.9587 22.2536C39.9587 22.4403 40.08 22.5943 40.3227 22.7156C40.5747 22.8276 40.878 22.9303 41.2327 23.0236C41.5873 23.1076 41.942 23.2196 42.2967 23.3596C42.6513 23.4903 42.95 23.7143 43.1927 24.0316C43.4447 24.349 43.5707 24.7456 43.5707 25.2216C43.5707 25.9403 43.3 26.4956 42.7587 26.8876C42.2267 27.2703 41.5593 27.4616 40.7567 27.4616C39.3193 27.4616 38.3393 26.9063 37.8167 25.7956L39.3847 24.9136C39.59 25.5203 40.0473 25.8236 40.7567 25.8236C41.4007 25.8236 41.7227 25.623 41.7227 25.2216C41.7227 25.035 41.5967 24.8856 41.3447 24.7736C41.102 24.6523 40.8033 24.545 40.4487 24.4516C40.094 24.3583 39.7393 24.2416 39.3847 24.1016C39.03 23.9616 38.7267 23.7423 38.4747 23.4436C38.232 23.1356 38.1107 22.753 38.1107 22.2956C38.1107 21.605 38.3627 21.0636 38.8667 20.6716C39.38 20.2703 40.0147 20.0696 40.7707 20.0696C41.34 20.0696 41.858 20.2003 42.3247 20.4616C42.7913 20.7136 43.16 21.0776 43.4307 21.5536L41.8907 22.3936C41.6667 21.9176 41.2933 21.6796 40.7707 21.6796C40.5373 21.6796 40.3413 21.731 40.1827 21.8336C40.0333 21.9363 39.9587 22.0763 39.9587 22.2536ZM48.6241 20.0696C49.3895 20.0696 50.0195 20.3263 50.5141 20.8396C51.0181 21.353 51.2701 22.0623 51.2701 22.9676V27.2656H49.4641V23.1916C49.4641 22.725 49.3381 22.3703 49.0861 22.1276C48.8341 21.8756 48.4981 21.7496 48.0781 21.7496C47.6115 21.7496 47.2381 21.8943 46.9581 22.1836C46.6781 22.473 46.5381 22.907 46.5381 23.4856V27.2656H44.7321V17.4656H46.5381V21.0496C46.9768 20.3963 47.6721 20.0696 48.6241 20.0696ZM58.7762 26.3976C58.0575 27.107 57.1802 27.4616 56.1442 27.4616C55.1082 27.4616 54.2309 27.107 53.5122 26.3976C52.8029 25.679 52.4482 24.8016 52.4482 23.7656C52.4482 22.7296 52.8029 21.857 53.5122 21.1476C54.2309 20.429 55.1082 20.0696 56.1442 20.0696C57.1802 20.0696 58.0575 20.429 58.7762 21.1476C59.4949 21.857 59.8542 22.7296 59.8542 23.7656C59.8542 24.8016 59.4949 25.679 58.7762 26.3976ZM54.7862 25.1516C55.1502 25.5156 55.6029 25.6976 56.1442 25.6976C56.6855 25.6976 57.1382 25.5156 57.5022 25.1516C57.8662 24.7876 58.0482 24.3256 58.0482 23.7656C58.0482 23.2056 57.8662 22.7436 57.5022 22.3796C57.1382 22.0156 56.6855 21.8336 56.1442 21.8336C55.6029 21.8336 55.1502 22.0156 54.7862 22.3796C54.4315 22.7436 54.2542 23.2056 54.2542 23.7656C54.2542 24.3256 54.4315 24.7876 54.7862 25.1516ZM65.1987 20.0696C66.1414 20.0696 66.944 20.429 67.6067 21.1476C68.2787 21.857 68.6147 22.7296 68.6147 23.7656C68.6147 24.8016 68.2787 25.679 67.6067 26.3976C66.944 27.107 66.1414 27.4616 65.1987 27.4616C64.2187 27.4616 63.4627 27.121 62.9307 26.4396V30.0656H61.1247V20.2656H62.9307V21.0916C63.4627 20.4103 64.2187 20.0696 65.1987 20.0696ZM63.4767 25.1936C63.8407 25.5576 64.3027 25.7396 64.8627 25.7396C65.4227 25.7396 65.8847 25.5576 66.2487 25.1936C66.622 24.8203 66.8087 24.3443 66.8087 23.7656C66.8087 23.187 66.622 22.7156 66.2487 22.3516C65.8847 21.9783 65.4227 21.7916 64.8627 21.7916C64.3027 21.7916 63.8407 21.9783 63.4767 22.3516C63.1127 22.7156 62.9307 23.187 62.9307 23.7656C62.9307 24.3443 63.1127 24.8203 63.4767 25.1936Z" fill="#828282"/>
</svg>
